<svg xmlns="http://www.w3.org/2000/svg" xmlns:xlink="http://www.w3.org/1999/xlink" xmlns:s="https://github.com/nturley/netlistsvg" width="489" height="466.5">
  <style>svg {
    stroke:#000;
    fill:none;
  }
  text {
    fill:#000;
    stroke:none;
    font-size:10px;
    font-weight: bold;
    font-family: "Courier New", monospace;
  }
  .nodelabel {
    text-anchor: middle;
  }
  .inputPortLabel {
    text-anchor: end;
  }
  .splitjoinBody {
    fill:#000;
  }</style>
  <g s:type="generic" transform="translate(334,283.5)" s:width="30" s:height="40" id="cell_$procdff$163">
    <text x="15" y="-4" class="nodelabel cell_$procdff$163" s:attribute="ref">$adff</text>
    <rect width="30" height="60" s:generic="body" class="cell_$procdff$163"/>
    <g transform="translate(0,10)" s:x="0" s:y="10" s:pid="in0" id="port_$procdff$163~ARST">
      <text x="-3" y="-4" class="inputPortLabel cell_$procdff$163">ARST</text>
    </g>
    <g transform="translate(0,30)" s:x="0" s:y="10" s:pid="in0" id="port_$procdff$163~CLK">
      <text x="-3" y="-4" class="inputPortLabel cell_$procdff$163">CLK</text>
    </g>
    <g transform="translate(0,50)" s:x="0" s:y="10" s:pid="in0" id="port_$procdff$163~D">
      <text x="-3" y="-4" class="inputPortLabel cell_$procdff$163">D</text>
    </g>
    <g transform="translate(30,10)" s:x="30" s:y="10" s:pid="out0" id="port_$procdff$163~Q">
      <text x="5" y="-4" style="fill:#000; stroke:none" class="cell_$procdff$163">Q</text>
    </g>
  </g>
  <g s:type="generic" transform="translate(334,175.5)" s:width="30" s:height="40" id="cell_$procdff$168">
    <text x="15" y="-4" class="nodelabel cell_$procdff$168" s:attribute="ref">$adff</text>
    <rect width="30" height="60" s:generic="body" class="cell_$procdff$168"/>
    <g transform="translate(0,10)" s:x="0" s:y="10" s:pid="in0" id="port_$procdff$168~ARST">
      <text x="-3" y="-4" class="inputPortLabel cell_$procdff$168">ARST</text>
    </g>
    <g transform="translate(0,30)" s:x="0" s:y="10" s:pid="in0" id="port_$procdff$168~CLK">
      <text x="-3" y="-4" class="inputPortLabel cell_$procdff$168">CLK</text>
    </g>
    <g transform="translate(0,50)" s:x="0" s:y="10" s:pid="in0" id="port_$procdff$168~D">
      <text x="-3" y="-4" class="inputPortLabel cell_$procdff$168">D</text>
    </g>
    <g transform="translate(30,10)" s:x="30" s:y="10" s:pid="out0" id="port_$procdff$168~Q">
      <text x="5" y="-4" style="fill:#000; stroke:none" class="cell_$procdff$168">Q</text>
    </g>
  </g>
  <g s:type="generic" transform="translate(334,22)" s:width="30" s:height="40" id="cell_$procdff$173">
    <text x="15" y="-4" class="nodelabel cell_$procdff$173" s:attribute="ref">$adff</text>
    <rect width="30" height="60" s:generic="body" class="cell_$procdff$173"/>
    <g transform="translate(0,10)" s:x="0" s:y="10" s:pid="in0" id="port_$procdff$173~ARST">
      <text x="-3" y="-4" class="inputPortLabel cell_$procdff$173">ARST</text>
    </g>
    <g transform="translate(0,30)" s:x="0" s:y="10" s:pid="in0" id="port_$procdff$173~CLK">
      <text x="-3" y="-4" class="inputPortLabel cell_$procdff$173">CLK</text>
    </g>
    <g transform="translate(0,50)" s:x="0" s:y="10" s:pid="in0" id="port_$procdff$173~D">
      <text x="-3" y="-4" class="inputPortLabel cell_$procdff$173">D</text>
    </g>
    <g transform="translate(30,10)" s:x="30" s:y="10" s:pid="out0" id="port_$procdff$173~Q">
      <text x="5" y="-4" style="fill:#000; stroke:none" class="cell_$procdff$173">Q</text>
    </g>
  </g>
  <g s:type="generic" transform="translate(334,391.5)" s:width="30" s:height="40" id="cell_$procdff$178">
    <text x="15" y="-4" class="nodelabel cell_$procdff$178" s:attribute="ref">$adff</text>
    <rect width="30" height="60" s:generic="body" class="cell_$procdff$178"/>
    <g transform="translate(0,10)" s:x="0" s:y="10" s:pid="in0" id="port_$procdff$178~ARST">
      <text x="-3" y="-4" class="inputPortLabel cell_$procdff$178">ARST</text>
    </g>
    <g transform="translate(0,30)" s:x="0" s:y="10" s:pid="in0" id="port_$procdff$178~CLK">
      <text x="-3" y="-4" class="inputPortLabel cell_$procdff$178">CLK</text>
    </g>
    <g transform="translate(0,50)" s:x="0" s:y="10" s:pid="in0" id="port_$procdff$178~D">
      <text x="-3" y="-4" class="inputPortLabel cell_$procdff$178">D</text>
    </g>
    <g transform="translate(30,10)" s:x="30" s:y="10" s:pid="out0" id="port_$procdff$178~Q">
      <text x="5" y="-4" style="fill:#000; stroke:none" class="cell_$procdff$178">Q</text>
    </g>
  </g>
  <g s:type="reduce_xor" transform="translate(241,213.5)" s:width="33" s:height="25" id="cell_$xor$src/des_round.sv:52$3">
    <s:alias val="$xor"/>
    <s:alias val="$reduce_xor"/>
    <s:alias val="$_XOR_"/>
    <path d="M3,0 A30 25 0 0 1 3,25 A30 25 0 0 0 33,12.5 A30 25 0 0 0 3,0" class="cell_$xor$src/des_round.sv:52$3"/>
    <path d="M0,0 A30 25 0 0 1 0,25" class="cell_$xor$src/des_round.sv:52$3"/>
    <g s:x="3" s:y="5" s:pid="A"/>
    <g s:x="3" s:y="20" s:pid="B"/>
    <g s:x="33" s:y="12.5" s:pid="Y"/>
  </g>
  <g s:type="reduce_xor" transform="translate(241,429.5)" s:width="33" s:height="25" id="cell_$xor$src/des_round.sv:57$4">
    <s:alias val="$xor"/>
    <s:alias val="$reduce_xor"/>
    <s:alias val="$_XOR_"/>
    <path d="M3,0 A30 25 0 0 1 3,25 A30 25 0 0 0 33,12.5 A30 25 0 0 0 3,0" class="cell_$xor$src/des_round.sv:57$4"/>
    <path d="M0,0 A30 25 0 0 1 0,25" class="cell_$xor$src/des_round.sv:57$4"/>
    <g s:x="3" s:y="5" s:pid="A"/>
    <g s:x="3" s:y="20" s:pid="B"/>
    <g s:x="33" s:y="12.5" s:pid="Y"/>
  </g>
  <g s:type="generic" transform="translate(126,223)" s:width="30" s:height="40" id="cell_f_func">
    <text x="15" y="-4" class="nodelabel cell_f_func" s:attribute="ref">masked_feistel_function</text>
    <rect width="30" height="60" s:generic="body" class="cell_f_func"/>
    <g transform="translate(0,10)" s:x="0" s:y="10" s:pid="in0" id="port_f_func~K">
      <text x="-3" y="-4" class="inputPortLabel cell_f_func">K</text>
    </g>
    <g transform="translate(0,30)" s:x="0" s:y="10" s:pid="in0" id="port_f_func~MR_in">
      <text x="-3" y="-4" class="inputPortLabel cell_f_func">MR_in</text>
    </g>
    <g transform="translate(0,50)" s:x="0" s:y="10" s:pid="in0" id="port_f_func~R_masked">
      <text x="-3" y="-4" class="inputPortLabel cell_f_func">R_masked</text>
    </g>
    <g transform="translate(30,10)" s:x="30" s:y="10" s:pid="out0" id="port_f_func~F_masked">
      <text x="5" y="-4" style="fill:#000; stroke:none" class="cell_f_func">F_masked</text>
    </g>
    <g transform="translate(30,30)" s:x="30" s:y="10" s:pid="out0" id="port_f_func~MF_out">
      <text x="5" y="-4" style="fill:#000; stroke:none" class="cell_f_func">MF_out</text>
    </g>
  </g>
  <g s:type="inputExt" transform="translate(244,158.5)" s:width="30" s:height="20" id="cell_clk">
    <text x="15" y="-4" class="nodelabel cell_clk" s:attribute="ref">clk</text>
    <s:alias val="$_inputExt_"/>
    <path d="M0,0 L0,20 L15,20 L30,10 L15,0 Z" class="cell_clk"/>
    <g s:x="28" s:y="10" s:pid="Y"/>
  </g>
  <g s:type="inputExt" transform="translate(244,93.5)" s:width="30" s:height="20" id="cell_rst_n">
    <text x="15" y="-4" class="nodelabel cell_rst_n" s:attribute="ref">rst_n</text>
    <s:alias val="$_inputExt_"/>
    <path d="M0,0 L0,20 L15,20 L30,10 L15,0 Z" class="cell_rst_n"/>
    <g s:x="28" s:y="10" s:pid="Y"/>
  </g>
  <g s:type="inputExt" transform="translate(126,158)" s:width="30" s:height="20" id="cell_L_in">
    <text x="15" y="-4" class="nodelabel cell_L_in" s:attribute="ref">L_in</text>
    <s:alias val="$_inputExt_"/>
    <path d="M0,0 L0,20 L15,20 L30,10 L15,0 Z" class="cell_L_in"/>
    <g s:x="28" s:y="10" s:pid="Y"/>
  </g>
  <g s:type="inputExt" transform="translate(12,324)" s:width="30" s:height="20" id="cell_R_in">
    <text x="15" y="-4" class="nodelabel cell_R_in" s:attribute="ref">R_in</text>
    <s:alias val="$_inputExt_"/>
    <path d="M0,0 L0,20 L15,20 L30,10 L15,0 Z" class="cell_R_in"/>
    <g s:x="28" s:y="10" s:pid="Y"/>
  </g>
  <g s:type="inputExt" transform="translate(126,424.5)" s:width="30" s:height="20" id="cell_ML_in">
    <text x="15" y="-4" class="nodelabel cell_ML_in" s:attribute="ref">ML_in</text>
    <s:alias val="$_inputExt_"/>
    <path d="M0,0 L0,20 L15,20 L30,10 L15,0 Z" class="cell_ML_in"/>
    <g s:x="28" s:y="10" s:pid="Y"/>
  </g>
  <g s:type="inputExt" transform="translate(12,62.5)" s:width="30" s:height="20" id="cell_MR_in">
    <text x="15" y="-4" class="nodelabel cell_MR_in" s:attribute="ref">MR_in</text>
    <s:alias val="$_inputExt_"/>
    <path d="M0,0 L0,20 L15,20 L30,10 L15,0 Z" class="cell_MR_in"/>
    <g s:x="28" s:y="10" s:pid="Y"/>
  </g>
  <g s:type="inputExt" transform="translate(12,223.5)" s:width="30" s:height="20" id="cell_K_in">
    <text x="15" y="-4" class="nodelabel cell_K_in" s:attribute="ref">K_in</text>
    <s:alias val="$_inputExt_"/>
    <path d="M0,0 L0,20 L15,20 L30,10 L15,0 Z" class="cell_K_in"/>
    <g s:x="28" s:y="10" s:pid="Y"/>
  </g>
  <g s:type="outputExt" transform="translate(441,284)" s:width="30" s:height="20" id="cell_L_out">
    <text x="15" y="-4" class="nodelabel cell_L_out" s:attribute="ref">L_out</text>
    <s:alias val="$_outputExt_"/>
    <path d="M30,0 L30,20 L15,20 L0,10 L15,0 Z" class="cell_L_out"/>
    <g s:x="0" s:y="10" s:pid="A"/>
  </g>
  <g s:type="outputExt" transform="translate(441,176)" s:width="30" s:height="20" id="cell_R_out">
    <text x="15" y="-4" class="nodelabel cell_R_out" s:attribute="ref">R_out</text>
    <s:alias val="$_outputExt_"/>
    <path d="M30,0 L30,20 L15,20 L0,10 L15,0 Z" class="cell_R_out"/>
    <g s:x="0" s:y="10" s:pid="A"/>
  </g>
  <g s:type="outputExt" transform="translate(441,22.5)" s:width="30" s:height="20" id="cell_ML_out">
    <text x="15" y="-4" class="nodelabel cell_ML_out" s:attribute="ref">ML_out</text>
    <s:alias val="$_outputExt_"/>
    <path d="M30,0 L30,20 L15,20 L0,10 L15,0 Z" class="cell_ML_out"/>
    <g s:x="0" s:y="10" s:pid="A"/>
  </g>
  <g s:type="outputExt" transform="translate(441,392)" s:width="30" s:height="20" id="cell_MR_out">
    <text x="15" y="-4" class="nodelabel cell_MR_out" s:attribute="ref">MR_out</text>
    <s:alias val="$_outputExt_"/>
    <path d="M30,0 L30,20 L15,20 L0,10 L15,0 Z" class="cell_MR_out"/>
    <g s:x="0" s:y="10" s:pid="A"/>
  </g>
  <line x1="272" x2="294" y1="103.5" y2="103.5" class="net_3"/>
  <line x1="294" x2="294" y1="103.5" y2="294" class="net_3"/>
  <circle cx="294" cy="103.5" r="2" style="fill:#000" class="net_3"/>
  <circle cx="294" cy="294" r="2" style="fill:#000" class="net_3"/>
  <line x1="294" x2="334" y1="294" y2="294" class="net_3"/>
  <line x1="272" x2="294" y1="103.5" y2="103.5" class="net_3"/>
  <line x1="294" x2="294" y1="103.5" y2="186" class="net_3"/>
  <circle cx="294" cy="186" r="2" style="fill:#000" class="net_3"/>
  <line x1="294" x2="334" y1="186" y2="186" class="net_3"/>
  <line x1="272" x2="294" y1="103.5" y2="103.5" class="net_3"/>
  <line x1="294" x2="294" y1="103.5" y2="32.5" class="net_3"/>
  <line x1="294" x2="334" y1="32.5" y2="32.5" class="net_3"/>
  <line x1="272" x2="294" y1="103.5" y2="103.5" class="net_3"/>
  <line x1="294" x2="294" y1="103.5" y2="402" class="net_3"/>
  <line x1="294" x2="334" y1="402" y2="402" class="net_3"/>
  <line x1="272" x2="284" y1="168.5" y2="168.5" class="net_2"/>
  <line x1="284" x2="284" y1="168.5" y2="314" class="net_2"/>
  <circle cx="284" cy="168.5" r="2" style="fill:#000" class="net_2"/>
  <circle cx="284" cy="314" r="2" style="fill:#000" class="net_2"/>
  <line x1="284" x2="334" y1="314" y2="314" class="net_2"/>
  <line x1="272" x2="284" y1="168.5" y2="168.5" class="net_2"/>
  <line x1="284" x2="284" y1="168.5" y2="206" class="net_2"/>
  <circle cx="284" cy="206" r="2" style="fill:#000" class="net_2"/>
  <line x1="284" x2="334" y1="206" y2="206" class="net_2"/>
  <line x1="272" x2="284" y1="168.5" y2="168.5" class="net_2"/>
  <line x1="284" x2="284" y1="168.5" y2="52.5" class="net_2"/>
  <line x1="284" x2="334" y1="52.5" y2="52.5" class="net_2"/>
  <line x1="272" x2="284" y1="168.5" y2="168.5" class="net_2"/>
  <line x1="284" x2="284" y1="168.5" y2="422" class="net_2"/>
  <line x1="284" x2="334" y1="422" y2="422" class="net_2"/>
  <line x1="40" x2="334" y1="334" y2="334" class="net_36,37,38,39,40,41,42,43,44,45,46,47,48,49,50,51,52,53,54,55,56,57,58,59,60,61,62,63,64,65,66,67"/>
  <line x1="40" x2="52" y1="334" y2="334" class="net_36,37,38,39,40,41,42,43,44,45,46,47,48,49,50,51,52,53,54,55,56,57,58,59,60,61,62,63,64,65,66,67"/>
  <line x1="52" x2="52" y1="334" y2="273.5" class="net_36,37,38,39,40,41,42,43,44,45,46,47,48,49,50,51,52,53,54,55,56,57,58,59,60,61,62,63,64,65,66,67"/>
  <circle cx="52" cy="334" r="2" style="fill:#000" class="net_36,37,38,39,40,41,42,43,44,45,46,47,48,49,50,51,52,53,54,55,56,57,58,59,60,61,62,63,64,65,66,67"/>
  <line x1="52" x2="126" y1="273.5" y2="273.5" class="net_36,37,38,39,40,41,42,43,44,45,46,47,48,49,50,51,52,53,54,55,56,57,58,59,60,61,62,63,64,65,66,67"/>
  <line x1="274" x2="334" y1="226" y2="226" class="net_308,309,310,311,312,313,314,315,316,317,318,319,320,321,322,323,324,325,326,327,328,329,330,331,332,333,334,335,336,337,338,339"/>
  <line x1="40" x2="334" y1="72.5" y2="72.5" class="net_100,101,102,103,104,105,106,107,108,109,110,111,112,113,114,115,116,117,118,119,120,121,122,123,124,125,126,127,128,129,130,131"/>
  <line x1="40" x2="52" y1="72.5" y2="72.5" class="net_100,101,102,103,104,105,106,107,108,109,110,111,112,113,114,115,116,117,118,119,120,121,122,123,124,125,126,127,128,129,130,131"/>
  <line x1="52" x2="52" y1="72.5" y2="253.5" class="net_100,101,102,103,104,105,106,107,108,109,110,111,112,113,114,115,116,117,118,119,120,121,122,123,124,125,126,127,128,129,130,131"/>
  <circle cx="52" cy="72.5" r="2" style="fill:#000" class="net_100,101,102,103,104,105,106,107,108,109,110,111,112,113,114,115,116,117,118,119,120,121,122,123,124,125,126,127,128,129,130,131"/>
  <line x1="52" x2="126" y1="253.5" y2="253.5" class="net_100,101,102,103,104,105,106,107,108,109,110,111,112,113,114,115,116,117,118,119,120,121,122,123,124,125,126,127,128,129,130,131"/>
  <line x1="274" x2="334" y1="442" y2="442" class="net_340,341,342,343,344,345,346,347,348,349,350,351,352,353,354,355,356,357,358,359,360,361,362,363,364,365,366,367,368,369,370,371"/>
  <line x1="154" x2="216" y1="168" y2="168" class="net_4,5,6,7,8,9,10,11,12,13,14,15,16,17,18,19,20,21,22,23,24,25,26,27,28,29,30,31,32,33,34,35"/>
  <line x1="216" x2="216" y1="168" y2="218.5" class="net_4,5,6,7,8,9,10,11,12,13,14,15,16,17,18,19,20,21,22,23,24,25,26,27,28,29,30,31,32,33,34,35"/>
  <line x1="216" x2="244" y1="218.5" y2="218.5" class="net_4,5,6,7,8,9,10,11,12,13,14,15,16,17,18,19,20,21,22,23,24,25,26,27,28,29,30,31,32,33,34,35"/>
  <line x1="157" x2="244" y1="233.5" y2="233.5" class="net_372,373,374,375,376,377,378,379,380,381,382,383,384,385,386,387,388,389,390,391,392,393,394,395,396,397,398,399,400,401,402,403"/>
  <line x1="154" x2="244" y1="434.5" y2="434.5" class="net_68,69,70,71,72,73,74,75,76,77,78,79,80,81,82,83,84,85,86,87,88,89,90,91,92,93,94,95,96,97,98,99"/>
  <line x1="157" x2="216" y1="253.5" y2="253.5" class="net_404,405,406,407,408,409,410,411,412,413,414,415,416,417,418,419,420,421,422,423,424,425,426,427,428,429,430,431,432,433,434,435"/>
  <line x1="216" x2="216" y1="253.5" y2="449.5" class="net_404,405,406,407,408,409,410,411,412,413,414,415,416,417,418,419,420,421,422,423,424,425,426,427,428,429,430,431,432,433,434,435"/>
  <line x1="216" x2="244" y1="449.5" y2="449.5" class="net_404,405,406,407,408,409,410,411,412,413,414,415,416,417,418,419,420,421,422,423,424,425,426,427,428,429,430,431,432,433,434,435"/>
  <line x1="40" x2="126" y1="233.5" y2="233.5" class="net_132,133,134,135,136,137,138,139,140,141,142,143,144,145,146,147,148,149,150,151,152,153,154,155,156,157,158,159,160,161,162,163,164,165,166,167,168,169,170,171,172,173,174,175,176,177,178,179"/>
  <line x1="365" x2="441" y1="294" y2="294" class="net_180,181,182,183,184,185,186,187,188,189,190,191,192,193,194,195,196,197,198,199,200,201,202,203,204,205,206,207,208,209,210,211"/>
  <line x1="365" x2="441" y1="186" y2="186" class="net_212,213,214,215,216,217,218,219,220,221,222,223,224,225,226,227,228,229,230,231,232,233,234,235,236,237,238,239,240,241,242,243"/>
  <line x1="365" x2="441" y1="32.5" y2="32.5" class="net_244,245,246,247,248,249,250,251,252,253,254,255,256,257,258,259,260,261,262,263,264,265,266,267,268,269,270,271,272,273,274,275"/>
  <line x1="365" x2="441" y1="402" y2="402" class="net_276,277,278,279,280,281,282,283,284,285,286,287,288,289,290,291,292,293,294,295,296,297,298,299,300,301,302,303,304,305,306,307"/>
</svg>
